<mxfile host="Electron" agent="Mozilla/5.0 (Windows NT 10.0; Win64; x64) AppleWebKit/537.36 (KHTML, like Gecko) draw.io/27.0.9 Chrome/134.0.6998.205 Electron/35.4.0 Safari/537.36" version="27.0.9">
  <diagram name="Page-1" id="EOQRmQy9q2YIam7we_P5">
    <mxGraphModel dx="576" dy="1680" grid="1" gridSize="10" guides="1" tooltips="1" connect="1" arrows="1" fold="1" page="1" pageScale="1" pageWidth="1500" pageHeight="1500" math="0" shadow="0">
      <root>
        <mxCell id="0" />
        <mxCell id="1" parent="0" />
        <mxCell id="OhuVNm8slyAvBdk_hYx8-29" value="" style="edgeStyle=orthogonalEdgeStyle;rounded=0;orthogonalLoop=1;jettySize=auto;html=1;" edge="1" parent="1" source="OhuVNm8slyAvBdk_hYx8-1" target="OhuVNm8slyAvBdk_hYx8-28">
          <mxGeometry relative="1" as="geometry" />
        </mxCell>
        <mxCell id="OhuVNm8slyAvBdk_hYx8-1" value="Start" style="ellipse;whiteSpace=wrap;html=1;" vertex="1" parent="1">
          <mxGeometry x="260" y="40" width="120" height="80" as="geometry" />
        </mxCell>
        <mxCell id="OhuVNm8slyAvBdk_hYx8-5" value="" style="edgeStyle=orthogonalEdgeStyle;rounded=0;orthogonalLoop=1;jettySize=auto;html=1;" edge="1" parent="1" source="OhuVNm8slyAvBdk_hYx8-2">
          <mxGeometry relative="1" as="geometry">
            <mxPoint x="320" y="430" as="targetPoint" />
          </mxGeometry>
        </mxCell>
        <mxCell id="OhuVNm8slyAvBdk_hYx8-2" value="Display categories&lt;div&gt;and questions&lt;/div&gt;" style="whiteSpace=wrap;html=1;" vertex="1" parent="1">
          <mxGeometry x="260" y="320" width="120" height="60" as="geometry" />
        </mxCell>
        <mxCell id="OhuVNm8slyAvBdk_hYx8-7" value="" style="edgeStyle=orthogonalEdgeStyle;rounded=0;orthogonalLoop=1;jettySize=auto;html=1;entryX=0.5;entryY=0;entryDx=0;entryDy=0;" edge="1" parent="1" target="OhuVNm8slyAvBdk_hYx8-8">
          <mxGeometry relative="1" as="geometry">
            <mxPoint x="320" y="490" as="sourcePoint" />
            <mxPoint x="320" y="530" as="targetPoint" />
          </mxGeometry>
        </mxCell>
        <mxCell id="OhuVNm8slyAvBdk_hYx8-11" value="" style="edgeStyle=orthogonalEdgeStyle;rounded=0;orthogonalLoop=1;jettySize=auto;html=1;" edge="1" parent="1" source="OhuVNm8slyAvBdk_hYx8-8" target="OhuVNm8slyAvBdk_hYx8-10">
          <mxGeometry relative="1" as="geometry" />
        </mxCell>
        <mxCell id="OhuVNm8slyAvBdk_hYx8-43" value="" style="edgeStyle=orthogonalEdgeStyle;rounded=0;orthogonalLoop=1;jettySize=auto;html=1;" edge="1" parent="1" source="OhuVNm8slyAvBdk_hYx8-8" target="OhuVNm8slyAvBdk_hYx8-12">
          <mxGeometry relative="1" as="geometry" />
        </mxCell>
        <mxCell id="OhuVNm8slyAvBdk_hYx8-8" value="Response correct&lt;div&gt;and in question&lt;/div&gt;&lt;div&gt;form?&lt;/div&gt;" style="rhombus;whiteSpace=wrap;html=1;fontSize=11;" vertex="1" parent="1">
          <mxGeometry x="260" y="570" width="120" height="120" as="geometry" />
        </mxCell>
        <mxCell id="OhuVNm8slyAvBdk_hYx8-26" value="" style="edgeStyle=orthogonalEdgeStyle;rounded=0;orthogonalLoop=1;jettySize=auto;html=1;" edge="1" parent="1" source="OhuVNm8slyAvBdk_hYx8-10" target="OhuVNm8slyAvBdk_hYx8-25">
          <mxGeometry relative="1" as="geometry" />
        </mxCell>
        <mxCell id="OhuVNm8slyAvBdk_hYx8-10" value="Award points" style="whiteSpace=wrap;html=1;" vertex="1" parent="1">
          <mxGeometry x="260" y="740" width="120" height="60" as="geometry" />
        </mxCell>
        <mxCell id="OhuVNm8slyAvBdk_hYx8-27" value="" style="edgeStyle=orthogonalEdgeStyle;rounded=0;orthogonalLoop=1;jettySize=auto;html=1;" edge="1" parent="1" source="OhuVNm8slyAvBdk_hYx8-12" target="OhuVNm8slyAvBdk_hYx8-25">
          <mxGeometry relative="1" as="geometry" />
        </mxCell>
        <mxCell id="OhuVNm8slyAvBdk_hYx8-12" value="Deduct points" style="whiteSpace=wrap;html=1;" vertex="1" parent="1">
          <mxGeometry x="430" y="600" width="120" height="60" as="geometry" />
        </mxCell>
        <mxCell id="OhuVNm8slyAvBdk_hYx8-17" value="End" style="ellipse;whiteSpace=wrap;html=1;" vertex="1" parent="1">
          <mxGeometry x="80" y="300" width="120" height="80" as="geometry" />
        </mxCell>
        <mxCell id="OhuVNm8slyAvBdk_hYx8-20" value="Yes" style="text;html=1;align=center;verticalAlign=middle;whiteSpace=wrap;rounded=0;" vertex="1" parent="1">
          <mxGeometry x="270" y="700" width="60" height="30" as="geometry" />
        </mxCell>
        <mxCell id="OhuVNm8slyAvBdk_hYx8-22" value="No" style="text;html=1;align=center;verticalAlign=middle;whiteSpace=wrap;rounded=0;" vertex="1" parent="1">
          <mxGeometry x="370" y="580" width="60" height="30" as="geometry" />
        </mxCell>
        <mxCell id="OhuVNm8slyAvBdk_hYx8-25" value="Mark question&lt;div&gt;as used&lt;/div&gt;" style="rounded=0;whiteSpace=wrap;html=1;" vertex="1" parent="1">
          <mxGeometry x="430" y="740" width="120" height="60" as="geometry" />
        </mxCell>
        <mxCell id="OhuVNm8slyAvBdk_hYx8-32" value="" style="edgeStyle=orthogonalEdgeStyle;rounded=0;orthogonalLoop=1;jettySize=auto;html=1;" edge="1" parent="1" source="OhuVNm8slyAvBdk_hYx8-28" target="OhuVNm8slyAvBdk_hYx8-31">
          <mxGeometry relative="1" as="geometry" />
        </mxCell>
        <mxCell id="OhuVNm8slyAvBdk_hYx8-36" value="" style="edgeStyle=orthogonalEdgeStyle;rounded=0;orthogonalLoop=1;jettySize=auto;html=1;" edge="1" parent="1" source="OhuVNm8slyAvBdk_hYx8-28" target="OhuVNm8slyAvBdk_hYx8-2">
          <mxGeometry relative="1" as="geometry" />
        </mxCell>
        <mxCell id="OhuVNm8slyAvBdk_hYx8-28" value="Is there question remaining?" style="rhombus;whiteSpace=wrap;html=1;fontSize=11;" vertex="1" parent="1">
          <mxGeometry x="265" y="160" width="110" height="100" as="geometry" />
        </mxCell>
        <mxCell id="OhuVNm8slyAvBdk_hYx8-30" value="No" style="text;html=1;align=center;verticalAlign=middle;whiteSpace=wrap;rounded=0;" vertex="1" parent="1">
          <mxGeometry x="210" y="180" width="60" height="30" as="geometry" />
        </mxCell>
        <mxCell id="OhuVNm8slyAvBdk_hYx8-44" value="" style="edgeStyle=orthogonalEdgeStyle;rounded=0;orthogonalLoop=1;jettySize=auto;html=1;" edge="1" parent="1" source="OhuVNm8slyAvBdk_hYx8-31" target="OhuVNm8slyAvBdk_hYx8-17">
          <mxGeometry relative="1" as="geometry" />
        </mxCell>
        <mxCell id="OhuVNm8slyAvBdk_hYx8-31" value="Display game over&lt;div&gt;with final score / summary&lt;/div&gt;" style="rounded=0;whiteSpace=wrap;html=1;" vertex="1" parent="1">
          <mxGeometry x="80" y="180" width="120" height="60" as="geometry" />
        </mxCell>
        <mxCell id="OhuVNm8slyAvBdk_hYx8-37" value="Yes" style="text;html=1;align=center;verticalAlign=middle;whiteSpace=wrap;rounded=0;" vertex="1" parent="1">
          <mxGeometry x="260" y="270" width="60" height="30" as="geometry" />
        </mxCell>
        <mxCell id="OhuVNm8slyAvBdk_hYx8-39" value="Player selects a&lt;div&gt;question&lt;/div&gt;" style="shape=parallelogram;perimeter=parallelogramPerimeter;whiteSpace=wrap;html=1;fixedSize=1;" vertex="1" parent="1">
          <mxGeometry x="260" y="430" width="120" height="60" as="geometry" />
        </mxCell>
        <mxCell id="OhuVNm8slyAvBdk_hYx8-40" value="" style="endArrow=none;html=1;rounded=0;" edge="1" parent="1">
          <mxGeometry width="50" height="50" relative="1" as="geometry">
            <mxPoint x="550" y="770" as="sourcePoint" />
            <mxPoint x="600" y="770" as="targetPoint" />
          </mxGeometry>
        </mxCell>
        <mxCell id="OhuVNm8slyAvBdk_hYx8-41" value="" style="endArrow=none;html=1;rounded=0;" edge="1" parent="1">
          <mxGeometry width="50" height="50" relative="1" as="geometry">
            <mxPoint x="600" y="770" as="sourcePoint" />
            <mxPoint x="600" y="140" as="targetPoint" />
          </mxGeometry>
        </mxCell>
        <mxCell id="OhuVNm8slyAvBdk_hYx8-42" value="" style="endArrow=classic;html=1;rounded=0;" edge="1" parent="1">
          <mxGeometry width="50" height="50" relative="1" as="geometry">
            <mxPoint x="600" y="140" as="sourcePoint" />
            <mxPoint x="320" y="140" as="targetPoint" />
          </mxGeometry>
        </mxCell>
      </root>
    </mxGraphModel>
  </diagram>
</mxfile>
